<svg width="240" height="55" viewBox="0 0 240 55" fill="none" xmlns="http://www.w3.org/2000/svg">
<path d="M124.045 35.2018C121.69 33.5381 118.339 32.4147 113.502 31.6575C107.502 30.6336 104.248 29.5493 104.248 26.7408C104.248 24.5473 106.306 22.201 112.08 22.201C114.935 22.201 117.122 23.1004 118.58 24.8744C119.273 25.7134 119.797 26.7515 120.142 27.9531C120.278 28.4295 120.716 28.7636 121.212 28.7636L126.419 28.7601C126.746 28.7601 127.058 28.6179 127.266 28.369C127.478 28.1166 127.568 27.7895 127.51 27.466C126.602 22.3574 123.507 19.5489 122.58 18.8095C119.876 16.6515 116.343 15.5601 112.08 15.5601C107.635 15.5601 103.8 16.6373 100.995 18.6779C98.1439 20.7541 96.6357 23.6195 96.6357 26.9683C96.6357 34.9246 104.004 37.2247 111.969 38.5258C119.51 39.635 120.526 41.6685 120.526 43.5136C120.526 46.4963 117.291 48.352 112.08 48.352C111.172 48.352 110.31 48.2774 109.516 48.1316C109.495 48.1209 109.473 48.1103 109.448 48.1067C106.012 47.4242 103.713 45.3018 102.421 41.6294C102.266 41.1886 101.846 40.8899 101.372 40.8899H95.8744C95.5441 40.8899 95.2353 41.0357 95.0234 41.2846C94.8115 41.537 94.7254 41.8676 94.7828 42.1875C95.1635 44.2495 96.1581 46.027 96.2012 46.1017L96.2048 46.1088C98.5748 51.1748 103.128 54.2001 109.38 54.8614C109.391 54.8614 109.398 54.8649 109.409 54.8614C110.285 54.9538 111.183 55 112.08 55C116.598 55 120.684 53.8517 123.586 51.7684C126.519 49.6603 128.139 46.6776 128.139 43.3643C128.139 39.8163 126.799 37.1465 124.045 35.2018Z" fill="black"/>
<path d="M50.5066 15.8058H43.8778C43.49 15.8058 43.1775 16.1151 43.1775 16.499V54.0725C43.1775 54.4564 43.49 54.7657 43.8778 54.7657H50.5066C50.8944 54.7657 51.2069 54.4564 51.2069 54.0725V16.499C51.2033 16.1151 50.8908 15.8058 50.5066 15.8058Z" fill="black"/>
<path d="M239.662 43.9369C239.364 43.5672 238.922 43.3574 238.444 43.3574H233.252C232.609 43.3574 232.038 43.7485 231.798 44.3564C230.957 46.4575 229.018 47.5666 226.171 47.5666H226.142C222.149 47.5631 220.041 45.4443 220.041 41.4413V23.2038C220.041 23.0509 220.167 22.93 220.317 22.93H235.888C236.746 22.93 237.442 22.2404 237.442 21.3907V17.345C237.442 16.4954 236.746 15.8057 235.888 15.8057H220.317C220.163 15.8057 220.041 15.6813 220.041 15.5319V7.26998C220.041 6.42032 219.344 5.73064 218.486 5.73064H213.552C212.694 5.73064 211.997 6.42032 211.997 7.26998V41.7505C211.997 49.7992 217.524 54.9967 226.074 54.9967L226.153 54.9932H226.189C226.214 54.9932 226.235 54.9967 226.26 54.9967C233.449 54.9967 238.574 51.3421 239.96 45.2238C240.067 44.7724 239.956 44.2995 239.662 43.9369Z" fill="black"/>
<path d="M203.559 20.5518C200.399 17.4127 196.19 15.6387 191.702 15.564C187.141 15.4894 182.821 17.178 179.536 20.3349C176.178 23.5594 174.329 27.8717 174.329 32.4755C174.329 32.4755 174.329 34.0077 174.329 36.2758V54.0796C174.329 54.4635 174.641 54.7728 175.029 54.7728H181.658C182.046 54.7728 182.358 54.4635 182.358 54.0796V32.2515C182.358 29.8589 183.324 27.6157 185.08 25.9377C186.836 24.2597 189.152 23.3638 191.601 23.4207C196.305 23.5238 200.431 27.4806 200.431 31.8853L200.428 32.2799C200.424 32.4683 200.499 32.6461 200.636 32.7812C200.772 32.9163 200.952 32.9874 201.146 32.9909C202.647 32.9945 206.177 32.9945 207.742 32.9909C208.137 32.9909 208.461 32.6745 208.461 32.287V32.2444C208.461 27.8468 206.719 23.6945 203.559 20.5518Z" fill="black"/>
<path d="M90.8001 40.8976H84.9254C84.6776 40.8976 84.4478 41.0042 84.2898 41.1855C84.2215 41.2602 84.1677 41.3419 84.1282 41.4379C82.5302 45.4978 79.126 47.8299 74.781 47.8299C71.5456 47.8299 68.6226 46.575 66.5506 44.2998C64.4822 42.0281 63.3439 38.8392 63.3439 35.3161C63.3439 31.7611 64.4822 28.5473 66.5506 26.2649C68.619 23.9826 71.542 22.7276 74.781 22.7276C79.1871 22.7276 82.62 25.0811 84.2036 29.1836C84.3329 29.5178 84.6453 29.7311 84.9972 29.7311H90.8719C91.1412 29.7311 91.389 29.6102 91.5578 29.3934C91.6907 29.2192 91.7445 28.9988 91.7301 28.7819C91.6907 28.2273 91.5901 27.6478 91.4321 27.0684C91.407 26.9617 91.3495 26.784 91.3495 26.784C90.538 24.1034 88.7892 22.0308 88.7138 21.942C88.7102 21.9384 88.7066 21.9349 88.703 21.9313C85.4927 17.8181 80.5516 15.5571 74.781 15.5571C69.2582 15.5571 64.2704 17.651 60.7405 21.4549C57.365 25.0918 55.5049 30.0155 55.5049 35.3126C55.5049 40.5705 57.3435 45.4587 60.6866 49.0778C64.2596 52.9492 69.1325 54.9934 74.7846 54.9934C77.1905 54.9934 79.3882 54.6414 81.3488 53.9447C85.8949 52.1565 89.4894 49.1595 91.3603 43.5532C91.5183 42.9737 91.6224 42.3942 91.6583 41.8397C91.6727 41.6228 91.6224 41.4024 91.486 41.2282C91.3172 41.0184 91.0694 40.8976 90.8001 40.8976Z" fill="black"/>
<path d="M47.2345 0C43.956 0 41.2843 2.64141 41.2843 5.89074C41.2843 9.14007 43.9524 11.7815 47.2345 11.7815C50.4663 11.7815 53.0984 9.14007 53.0984 5.89074C53.0984 2.64141 50.4663 0 47.2345 0Z" fill="black"/>
<path d="M19.4807 0H19.452C14.3745 0 9.56981 1.9695 5.92143 5.54945C5.5767 5.88719 4.93752 6.59464 4.93752 6.59464C4.71847 6.8435 4.50661 7.09591 4.30192 7.35543C4.27679 7.38742 4.21933 7.46208 4.21933 7.46208C1.65541 10.7185 0.172364 14.6931 0 18.9058V54.069C0 54.2112 0.0430911 54.3463 0.1185 54.4565C0.244183 54.6413 0.459638 54.7622 0.70023 54.7622H7.32189C7.70971 54.7622 8.02212 54.4529 8.02212 54.069V36.1728C8.02212 36.0483 8.1083 35.9915 8.14421 35.9737C8.22321 35.9346 8.31298 35.9417 8.3848 35.9915C11.6454 38.2809 15.4733 39.4719 19.4484 39.4719C22.4828 39.4719 25.3016 38.7751 27.9051 37.5095C34.4441 34.3312 38.9615 27.5695 38.9615 19.727C38.9615 8.82011 30.2392 0 19.4807 0ZM19.452 31.9316C12.9237 31.9316 7.61275 26.4639 7.61275 19.7448C7.61275 13.0258 12.9237 7.55807 19.452 7.55807C25.9803 7.55807 31.2913 13.0258 31.2913 19.7448C31.2913 26.4639 25.9803 31.9316 19.452 31.9316Z" fill="black"/>
<path d="M169.789 35.0459C169.664 24.2776 160.988 15.5571 150.334 15.5571C139.604 15.5571 130.875 24.4056 130.875 35.2806C130.875 44.0082 136.502 51.4277 144.269 54.0158C144.301 54.0264 144.337 54.0371 144.369 54.0513C144.459 54.0797 144.549 54.1117 144.642 54.1402C146.355 54.6948 148.251 54.9969 150.248 54.9969C155.095 54.9969 159.706 53.191 162.141 50.4536C162.252 50.3292 162.464 50.4074 162.464 50.5744C162.464 51.9965 162.464 53.582 162.464 53.8771V54.062C162.464 54.4495 162.784 54.7659 163.175 54.7659H169.082C169.473 54.7659 169.793 54.4495 169.793 54.062V35.0459H169.789ZM150.334 47.4247C143.73 47.4247 138.358 41.9747 138.358 35.2806C138.358 28.5864 143.73 23.1365 150.334 23.1365C156.938 23.1365 162.31 28.5864 162.31 35.2806C162.31 41.9747 156.938 47.4247 150.334 47.4247Z" fill="black"/>
</svg>
